<?xml version="1.0" standalone="no"?>
<!DOCTYPE svg PUBLIC "-//W3C//DTD SVG 20010904//EN"
 "http://www.w3.org/TR/2001/REC-SVG-20010904/DTD/svg10.dtd">
<svg version="1.0" xmlns="http://www.w3.org/2000/svg"
 width="800.000000pt" height="132.000000pt" viewBox="0 0 800.000000 132.000000"
 preserveAspectRatio="xMidYMid meet">

<g transform="translate(0.000000,132.000000) scale(0.100000,-0.100000)"
fill="#000000" stroke="none">
<path d="M3866 909 c-34 -117 -33 -130 7 -91 30 29 38 32 99 32 60 0 66 -2 72
-22 7 -29 8 -366 0 -395 -4 -13 -22 -29 -47 -40 l-42 -18 62 -3 c35 -2 91 -2
125 0 l63 3 -40 18 c-21 10 -43 23 -47 30 -10 16 -10 399 1 415 5 9 30 12 87
10 75 -3 79 -4 92 -30 7 -16 17 -28 22 -28 10 0 25 99 16 107 -3 4 -17 1 -31
-5 -17 -8 -91 -12 -207 -12 -172 0 -183 1 -205 21 -17 17 -23 19 -27 8z"/>
<path d="M5824 891 c-12 -9 -29 -41 -39 -71 -40 -119 -148 -376 -167 -397 -11
-12 -31 -24 -44 -27 -56 -14 -19 -26 81 -26 106 0 130 9 75 29 -41 14 -45 30
-23 103 l19 63 69 3 c105 5 109 3 127 -73 17 -73 12 -88 -34 -99 -16 -4 -28
-11 -28 -16 0 -6 48 -10 120 -10 115 0 154 11 90 25 -16 4 -38 18 -49 31 -10
13 -52 122 -91 242 -40 119 -75 222 -79 229 -4 8 -12 6 -27 -6z m33 -191 c16
-55 28 -102 25 -105 -8 -8 -130 -6 -135 3 -6 8 65 202 73 202 3 0 20 -45 37
-100z"/>
<path d="M1118 887 c-95 -27 -160 -93 -185 -189 -17 -67 -16 -93 3 -157 30
-104 135 -181 244 -181 115 0 195 47 244 142 24 47 28 68 28 131 0 64 -4 83
-28 127 -44 80 -112 124 -210 134 -27 3 -70 0 -96 -7z m141 -45 c104 -52 153
-244 93 -360 -36 -70 -120 -104 -200 -82 -95 25 -146 111 -146 250 -1 72 3 91
23 127 43 75 151 106 230 65z"/>
<path d="M3363 889 c-61 -14 -103 -65 -103 -125 0 -65 21 -93 116 -157 67 -46
85 -64 93 -92 19 -69 -17 -125 -81 -125 -50 0 -83 22 -102 70 -28 70 -53 60
-41 -16 8 -58 46 -84 123 -84 66 0 110 18 145 59 22 27 27 42 27 87 0 69 -16
94 -94 146 -116 77 -142 115 -120 173 8 19 55 45 85 45 21 0 73 -46 95 -85 10
-16 15 -17 25 -8 16 16 -4 89 -29 102 -29 15 -95 20 -139 10z"/>
<path d="M280 880 c0 -6 11 -15 24 -20 43 -16 47 -37 44 -247 l-3 -198 -33
-17 c-19 -9 -36 -19 -39 -22 -4 -3 44 -6 105 -6 107 0 145 11 82 23 -37 8 -45
33 -45 142 l0 80 62 3 c57 3 63 1 79 -22 9 -14 19 -24 23 -22 5 3 6 100 2 126
-1 3 -13 -8 -27 -23 -23 -25 -31 -28 -82 -25 l-57 3 -3 82 c-4 114 2 123 84
123 56 0 68 -4 89 -25 14 -13 25 -29 25 -35 0 -5 5 -10 10 -10 6 0 10 23 10
50 l0 50 -175 0 c-113 0 -175 -4 -175 -10z"/>
<path d="M1762 878 c3 -7 13 -15 24 -17 43 -8 44 -15 44 -232 0 -203 0 -208
-22 -223 -12 -9 -30 -16 -40 -16 -10 0 -18 -4 -18 -10 0 -6 43 -10 110 -10 67
0 110 4 110 10 0 6 -9 10 -19 10 -41 0 -51 26 -51 127 l0 96 32 -7 c41 -8 52
-18 101 -91 98 -145 140 -175 222 -159 47 9 44 30 -5 38 -49 8 -106 60 -174
162 l-46 68 29 19 c41 26 62 62 64 111 2 57 -18 92 -68 116 -35 17 -62 20
-169 20 -98 0 -127 -3 -124 -12z m251 -30 c41 -21 50 -121 16 -169 -21 -30
-86 -56 -113 -46 -13 5 -16 25 -16 111 0 89 3 107 18 115 18 11 64 6 95 -11z"/>
<path d="M2567 884 c-10 -11 2 -24 23 -24 46 0 50 -19 50 -235 0 -199 0 -204
-22 -219 -12 -9 -30 -16 -40 -16 -10 0 -18 -4 -18 -10 0 -6 68 -10 184 -10
l184 0 11 31 c14 40 14 79 1 79 -5 0 -10 -4 -10 -9 0 -5 -13 -23 -29 -40 -27
-29 -34 -31 -99 -31 -52 0 -73 4 -83 16 -15 18 -25 139 -15 179 6 23 11 25 65
25 57 0 59 -1 70 -30 18 -52 31 -35 31 40 0 73 -15 93 -35 48 -8 -19 -19 -24
-64 -26 -37 -2 -57 1 -62 10 -5 7 -9 48 -9 90 0 97 9 108 91 108 70 0 96 -11
110 -47 15 -40 31 -15 21 33 l-8 39 -170 3 c-94 1 -173 -1 -177 -4z"/>
<path d="M4900 883 c0 -5 15 -20 34 -35 18 -15 63 -76 100 -135 l66 -108 0
-92 c0 -84 -2 -93 -22 -107 -12 -9 -30 -16 -40 -16 -10 0 -18 -4 -18 -10 0 -6
47 -10 121 -10 77 0 118 4 114 10 -3 6 -15 10 -26 10 -10 0 -28 9 -39 20 -17
17 -20 33 -20 113 l0 94 71 112 c56 88 79 116 105 127 56 23 40 34 -50 34 -86
0 -117 -13 -73 -29 14 -6 28 -15 32 -21 8 -12 -85 -182 -100 -183 -11 0 -105
161 -105 181 0 7 12 17 26 22 14 6 22 14 19 20 -7 11 -195 14 -195 3z"/>
<path d="M6365 881 c-6 -11 1 -16 38 -25 l27 -6 0 -220 c0 -219 0 -220 -22
-229 -13 -5 -32 -13 -43 -18 -24 -9 73 -16 163 -11 l57 4 -33 13 c-45 18 -52
37 -52 135 0 79 2 86 20 86 40 0 72 -26 118 -94 93 -140 160 -185 235 -157 34
13 35 31 2 31 -55 0 -120 56 -199 172 l-39 58 43 38 c39 34 43 43 48 93 4 49
1 59 -23 87 -14 17 -43 36 -63 42 -46 12 -269 13 -277 1z m265 -47 c21 -20 25
-34 25 -79 0 -48 -4 -58 -32 -86 -25 -26 -40 -32 -75 -33 l-43 -1 -3 97 c-2
86 0 100 17 117 26 26 75 19 111 -15z"/>
<path d="M7160 881 c0 -6 16 -17 35 -25 l35 -15 -2 -218 -3 -218 -32 -10 c-18
-5 -33 -13 -33 -17 0 -8 214 -14 295 -9 86 6 164 57 213 141 24 39 27 56 27
131 0 78 -3 90 -30 134 -21 33 -47 57 -85 79 l-55 31 -182 3 c-127 3 -183 1
-183 -7z m306 -26 c96 -28 157 -120 155 -232 -2 -127 -72 -217 -176 -224 -72
-5 -105 1 -125 21 -19 19 -20 31 -18 222 l3 202 25 13 c33 17 75 16 136 -2z"/>
</g>
</svg>
